<?xml version="1.0" encoding="utf-8"?>
<!-- Generator: Adobe Illustrator 25.1.0, SVG Export Plug-In . SVG Version: 6.00 Build 0)  -->
<svg version="1.1" id="Layer_1" xmlns="http://www.w3.org/2000/svg" xmlns:xlink="http://www.w3.org/1999/xlink" x="0px" y="0px"
	 viewBox="0 0 290.3 156.5" style="enable-background:new 0 0 290.3 156.5;" xml:space="preserve">
<style type="text/css">
	.st0{fill:#FFFFFF;}
	.st1{fill:#EC008C;}
</style>
<g>
	<g>
		<path class="st0" d="M66.9,117v3.5h4v1.2h-4v4.5h-1.5v-10.3h5.7v1.2H66.9z"/>
		<path class="st0" d="M75.5,126.1v-10.3h1.5v9.1h3.6v1.2H75.5z"/>
		<path class="st0" d="M88.9,126.3c-2.9,0-5.3-2-5.3-5.3c0-3.3,2.4-5.3,5.3-5.3c2.9,0,5.3,2,5.3,5.3
			C94.2,124.3,91.8,126.3,88.9,126.3z M88.9,116.9c-2.1,0-3.9,1.5-3.9,4c0,2.5,1.8,4,3.9,4c2.1,0,3.9-1.5,3.9-4
			C92.7,118.4,91,116.9,88.9,116.9z"/>
		<path class="st0" d="M103.3,126.3c-2.9,0-5.3-2-5.3-5.3c0-3.3,2.4-5.3,5.3-5.3c2.9,0,5.3,2,5.3,5.3
			C108.6,124.3,106.2,126.3,103.3,126.3z M103.3,116.9c-2.1,0-3.9,1.5-3.9,4c0,2.5,1.8,4,3.9,4c2.1,0,3.9-1.5,3.9-4
			C107.2,118.4,105.4,116.9,103.3,116.9z"/>
		<path class="st0" d="M118.2,126.1l-2.7-4.5h-1.1v4.5H113v-10.3h2.9c1.8,0,3.5,0.9,3.5,2.9c0,1.8-1.3,2.6-2.4,2.8l3,4.6H118.2z
			 M117.2,117.3c-0.5-0.3-1-0.4-1.7-0.4h-1.1v3.5h1.1c0.7,0,1.3,0,1.7-0.4c0.5-0.3,0.7-0.8,0.7-1.4
			C117.9,118.1,117.7,117.7,117.2,117.3z"/>
		<path class="st0" d="M132.4,126.1h-3.1v-10.3h3.1c3.1,0,5.5,2,5.5,5.2S135.5,126.1,132.4,126.1z M132.4,117h-1.7v7.8h1.7
			c2.3,0,4-1.5,4-3.9S134.8,117,132.4,117z"/>
		<path class="st0" d="M142.2,126.1v-10.3h6.1v1.2h-4.6v3.1h4.3v1.2h-4.3v3.6h4.7v1.2H142.2z"/>
		<path class="st0" d="M155.5,126.3c-1.8,0-2.8-1.2-3.3-1.7l0.9-1c0.5,0.7,1.5,1.5,2.6,1.5s2-0.6,2-1.7c0-1.1-1.2-1.5-1.7-1.7
			c-0.5-0.2-1.3-0.5-1.7-0.7c-1.1-0.5-1.7-1.3-1.7-2.5c0-1.8,1.7-2.8,3.3-2.8c1.7,0,2.7,1,3,1.3l-0.8,1c-0.5-0.5-1.3-1.1-2.3-1.1
			c-1,0-1.8,0.5-1.8,1.4s0.7,1.3,1.3,1.6l1.9,0.8c1.1,0.5,1.8,1.4,1.8,2.6C159.1,125.2,157.3,126.3,155.5,126.3z"/>
		<path class="st0" d="M163.4,126.1v-10.3h1.5v10.3H163.4z"/>
		<path class="st0" d="M174.5,126.3c-3,0-5.3-2.1-5.3-5.4s2.3-5.3,5.3-5.3c2.7,0,3.8,1.4,4.2,1.8l-1,0.9c-0.6-0.7-1.6-1.5-3.2-1.5
			c-2.1,0-3.8,1.5-3.8,4.1s1.7,4.1,3.9,4.1c2.1,0,2.9-0.9,2.9-0.9v-2.3h-2.8v-1.2h4.2v4C178.7,124.8,177.4,126.3,174.5,126.3z"/>
		<path class="st0" d="M190.9,126.1l-6-8.2c0,0,0,1.4,0,2.7v5.5h-1.4v-10.3h1.5l5.9,8.1c0,0,0-1.3,0-2.6v-5.5h1.4v10.3H190.9z"/>
		<path class="st0" d="M197.2,126.1v-10.3h6.1v1.2h-4.6v3.1h4.3v1.2h-4.3v3.6h4.7v1.2H197.2z"/>
		<path class="st0" d="M213.1,126.1l-2.7-4.5h-1.1v4.5h-1.5v-10.3h2.9c1.8,0,3.5,0.9,3.5,2.9c0,1.8-1.3,2.6-2.4,2.8l3,4.6H213.1z
			 M212,117.3c-0.5-0.3-1-0.4-1.7-0.4h-1.1v3.5h1.1c0.7,0,1.3,0,1.7-0.4c0.5-0.3,0.7-0.8,0.7-1.4C212.7,118.1,212.5,117.7,212,117.3
			z"/>
		<path class="st0" d="M221.2,126.3c-1.8,0-2.8-1.2-3.3-1.7l0.9-1c0.5,0.7,1.5,1.5,2.6,1.5s2-0.6,2-1.7c0-1.1-1.2-1.5-1.7-1.7
			c-0.5-0.2-1.3-0.5-1.7-0.7c-1.1-0.5-1.7-1.3-1.7-2.5c0-1.8,1.7-2.8,3.3-2.8c1.7,0,2.7,1,3,1.3l-0.8,1c-0.5-0.5-1.3-1.1-2.3-1.1
			c-1,0-1.8,0.5-1.8,1.4s0.7,1.3,1.3,1.6l1.9,0.8c1.1,0.5,1.8,1.4,1.8,2.6C224.8,125.2,223,126.3,221.2,126.3z"/>
	</g>
	<g>
		<g>
			<g>
				
					<rect x="141.2" y="40.8" transform="matrix(0.6687 -0.7435 0.7435 0.6687 19.1725 131.3553)" class="st1" width="31.6" height="6.7"/>
				
					<rect x="124.3" y="40.8" transform="matrix(0.6687 -0.7435 0.7435 0.6687 13.5604 118.7592)" class="st1" width="31.6" height="6.7"/>
				
					<rect x="107.3" y="40.8" transform="matrix(0.6688 -0.7435 0.7435 0.6688 7.9428 106.1531)" class="st1" width="31.6" height="6.7"/>
				<path class="st0" d="M61,88.9c0-2.7-0.6-5-1.9-7.1c-1.2-2.1-2.9-3.7-5.1-4.8c-2.1-1.1-4.5-1.7-7.1-1.7c-2.7,0-5.2,0.6-7.3,1.9
					c-2.1,1.2-3.8,2.9-5,4.9c-1.2,2-1.8,4.3-1.8,6.7c0,2.7,0.6,5,1.9,7.1c1.2,2.1,2.9,3.7,5.1,4.8c2.1,1.1,4.5,1.7,7.1,1.7
					c2.2,0,4.3-0.4,6.2-1.3l2.6,3.1l4-3.4l-2.3-2.7c0.7-0.8,1.3-1.6,1.9-2.5C60.4,93.6,61,91.3,61,88.9z M50.2,89.5l-4,3.4l3,3.6
					c-0.7,0.2-1.5,0.3-2.3,0.3c-1.5,0-2.8-0.4-3.9-1.1c-1.1-0.7-2-1.7-2.6-2.9c-0.6-1.2-0.9-2.6-0.9-4.1c0-1.6,0.3-3,1-4.2
					c0.7-1.2,1.6-2.1,2.7-2.8c1.1-0.7,2.4-1,3.8-1c1.5,0,2.8,0.4,3.9,1.1c1.1,0.7,2,1.7,2.6,2.9c0.6,1.2,0.9,2.6,0.9,4.1
					c0,1.6-0.3,3-1,4.2c0,0.1-0.1,0.1-0.1,0.2L50.2,89.5z"/>
				<path class="st0" d="M82.1,90.2c0,4.4-1.8,6.7-5.5,6.7c-1.8,0-3.2-0.6-4.1-1.7c-0.9-1.1-1.3-2.8-1.3-5l0-14.3l-6.4,0l0,14.8
					c0,3.8,1,6.7,3.1,8.7c2,2,5,3,8.8,3c3.8,0,6.8-1,8.9-3c2-2,3.1-4.9,3.1-8.7l0-14.8l-6.4,0L82.1,90.2z"/>
				<rect x="93.7" y="75.9" class="st0" width="6.4" height="26"/>
				<path class="st0" d="M123.7,101.5l0-5.7c-0.3,0.1-0.6,0.2-1,0.3c-1.4,0.4-2.6,0.6-3.7,0.6c-2.5,0-4.5-0.7-5.9-2.1
					c-1.4-1.4-2.2-3.3-2.2-5.7c0-2.4,0.7-4.3,2.2-5.7c1.4-1.4,3.4-2.1,5.9-2.1c1.2,0,2.4,0.2,3.6,0.4c0.4,0.1,0.8,0.2,1.2,0.4v-5.6
					c-0.2-0.1-0.5-0.1-0.7-0.2c-1.5-0.4-3-0.6-4.5-0.6c-2.2,0-4.2,0.4-5.9,1c-1.8,0.7-3.3,1.7-4.5,2.9c-1.2,1.2-2.2,2.7-2.8,4.3
					c-0.6,1.6-1,3.4-1,5.2c0,2.8,0.6,5.2,1.7,7.2c1.2,2,2.8,3.5,4.9,4.6c2.1,1,4.6,1.6,7.4,1.6c1.6,0,3.1-0.2,4.7-0.6
					C123.3,101.6,123.5,101.5,123.7,101.5z"/>
				<polygon class="st0" points="151.6,75.9 144.1,75.9 134.5,87.2 134.5,75.9 128.2,75.9 128.2,101.8 134.5,101.8 134.5,90.1 
					144.5,101.8 152.7,101.8 140.5,88.2 				"/>
				<polygon class="st0" points="183.8,80.9 191.9,80.9 191.9,101.8 198.4,101.8 198.4,80.9 206.5,80.9 206.5,75.9 183.8,75.9 				
					"/>
				<polygon class="st0" points="215.7,91.2 225.6,91.2 225.6,86.3 215.7,86.3 215.7,80.8 226.7,80.8 226.7,75.9 209.6,75.9 
					209.6,101.8 227.2,101.8 227.2,96.9 215.7,96.9 				"/>
				<path class="st0" d="M248.3,78.2c-1.8-1.6-4.3-2.4-7.4-2.4l-9.3,0l0,26l6.1,0l0-8.4l3.2,0c3.2,0,5.7-0.8,7.5-2.4
					c1.8-1.6,2.7-3.7,2.7-6.5C251,81.9,250.1,79.8,248.3,78.2z M239.9,88.8l-2.2,0v-8.2l2.2,0c1.6,0,2.9,0.3,3.7,1
					c0.8,0.7,1.3,1.7,1.3,3.1C244.9,87.4,243.2,88.8,239.9,88.8z"/>
				<path class="st0" d="M179.8,88.8c-0.8-0.8-2-1.5-3.6-2.1c-0.4-0.2-1.1-0.4-1.8-0.7l-0.1,0c-0.7-0.3-1.4-0.5-2-0.8
					c-1.3-0.5-2.6-1.1-2.6-2.6c0-2.1,2.4-2.3,3.4-2.3c1.9,0,4.2,1,5.8,2.6l0.1,0.1l2.7-4.3l0,0c-1.9-1.9-5.4-3.2-8.3-3.2
					c-2.9,0-5.3,0.7-6.9,2.1c-1,0.8-2.7,2.7-2.7,5.8c0,2.1,0.7,3.8,2.1,5.1c1,1,2.1,1.5,2.8,1.8l0.3,0.1c0.7,0.3,2,0.8,2.9,1.1
					l0.2,0.1c0.3,0.1,0.6,0.2,0.8,0.3l0,0c1.2,0.4,3,1.1,3,2.8c0,1.6-1.4,2.7-3.5,2.7c-2.1,0-5-1.4-6.8-3.3l-0.1-0.1l-3.1,4.5l0,0
					c1.3,1.2,4.7,3.9,9.3,3.9c2.9,0,5.3-0.7,7.1-2.2c2-1.5,3.1-3.8,3.1-6.3C181.9,91.9,181.2,90.2,179.8,88.8L179.8,88.8z"/>
				<circle class="st0" cx="155" cy="88.2" r="3.2"/>
				<g>
					<path class="st0" d="M256,77.7c0-0.5-0.4-0.8-0.9-0.8l-0.9,0v2.7l0.4,0v-1.1l0.3,0l0.7,1.1l0.5,0l-0.7-1.2
						C255.6,78.4,256,78.2,256,77.7z M255,78.1l-0.4,0v-0.9l0.4,0c0.3,0,0.6,0.1,0.6,0.4C255.6,78,255.3,78.1,255,78.1z"/>
					<path class="st0" d="M255.1,75.9c-1.3,0-2.3,1-2.3,2.3c0,1.3,1,2.3,2.3,2.3c1.3,0,2.3-1,2.3-2.3
						C257.4,76.9,256.4,75.9,255.1,75.9z M255.1,80.3c-1.1,0-2-0.9-2-2c0-1.1,0.9-2,2-2c1.1,0,2,0.9,2,2
						C257.1,79.4,256.2,80.3,255.1,80.3z"/>
				</g>
			</g>
		</g>
	</g>
</g>
</svg>
